<svg xmlns:xlink="http://www.w3.org/1999/xlink" width="2.079ex" height="2.176ex" style="font-size: 15px; vertical-align: -0.338ex;" viewBox="0 -791.3 895 936.9" role="img" focusable="false" xmlns="http://www.w3.org/2000/svg">
<defs>
<path stroke-width="1" id="E1-MJMAINB-34" d="M531 0Q510 3 381 3Q238 3 214 0H201V62H313V155H32V217L205 434Q342 606 362 630T387 655L391 656Q395 656 401 656T414 656H427Q447 656 451 645Q453 641 453 429V217H542V155H453V62H542V0H531ZM324 217V494L103 218L213 217H324Z"></path>
<path stroke-width="1" id="E1-MJMAINB-2E" d="M74 85Q74 121 99 146T156 171Q200 171 222 143T245 85Q245 56 224 29T160 1Q118 1 96 27T74 85Z"></path>
</defs>
<g stroke="currentColor" fill="currentColor" stroke-width="0" transform="matrix(1 0 0 -1 0 0)">
 <use xlink:href="#E1-MJMAINB-34"></use>
 <use xlink:href="#E1-MJMAINB-2E" x="575" y="0"></use>
</g>
</svg>