<?xml version="1.0" encoding="utf-8"?>
<!-- Generator: Adobe Illustrator 21.1.0, SVG Export Plug-In . SVG Version: 6.00 Build 0)  -->
<svg version="1.1" id="Layer_2" xmlns="http://www.w3.org/2000/svg" xmlns:xlink="http://www.w3.org/1999/xlink" x="0px" y="0px"
	 viewBox="0 0 36 35" style="enable-background:new 0 0 36 35;" xml:space="preserve">
<style type="text/css">
	.st0{fill:#FFFDFE;}
</style>
<g id="Layer_2_1_">
	<g>
		<path class="st0" d="M4.5,10.9c0.1-0.3,0.2-0.7,0.4-0.9L3,5.9h28.9l-3.2,4.3h2.3l4.6-5.9H0.1L4,12.1L4.5,10.9z"/>
		<path class="st0" d="M19.1,23l-4.8,6.4L10.8,22c-0.5,0.1-1.1,0.1-1.8,0.1l5,10.1l7.2-9.3H19.1z"/>
	</g>
	<path class="st0" d="M11.7,14.9l-3.8-2L8.2,12h3L11,13l1.9,0.8l1.3-4.2H7.9c-0.9,0-1.9,0.7-2.2,1.7l-0.8,2.4
		c-0.3,1.1,0.6,1.4,1.1,1.7l3.9,2l-0.3,1.1H6l0.4-0.9l-2.2-0.7l-1.7,4h0v0H10c0.9,0,1.9-0.7,2.2-1.7l0.7-2.3
		C13.1,16,12.5,15.4,11.7,14.9"/>
	<polygon class="st0" points="26.9,11 25.6,15.4 22.4,15.4 24.4,8.6 21.6,8.6 20.4,13 17.2,13 18.4,8.6 15.7,8.6 12.5,19.8 
		15.2,19.8 16.5,15.4 18.3,15.4 20.3,13.2 19.7,15.4 19.7,15.4 18.4,19.8 18.4,19.8 17.7,22.2 20.5,22.2 21.2,19.8 21.2,19.8 
		21.3,19.5 21.8,17.8 23.6,17.8 25.6,15.6 24.9,17.8 24.9,17.8 23.6,22.2 26.4,22.2 29.7,11 	"/>
</g>
</svg>
